<?xml version="1.0" encoding="utf-8"?>
<!-- Generator: Adobe Illustrator 23.0.5, SVG Export Plug-In . SVG Version: 6.00 Build 0)  -->
<svg version="1.1" id="Layer_1" xmlns="http://www.w3.org/2000/svg" xmlns:xlink="http://www.w3.org/1999/xlink" x="0px" y="0px"
	 viewBox="0 0 641.42 157.28" style="enable-background:new 0 0 641.42 157.28;" xml:space="preserve">
<style type="text/css">
	<!--.st0{fill:#FFFFFF;}-->
	.st0{fill:#39B54A;}
	.st1{fill:#39B54A;}
</style>
<g>
	<g>
		<path class="st0" d="M129.48,123.9L85.97,27.94c-1.92-4.52-6.75-7.66-11.8-7.66c-5.01,0-9.53,2.83-11.81,7.38
			c-0.03,0.06-0.06,0.12-0.08,0.17l-44.24,96.04c-0.02,0.04-0.04,0.08-0.05,0.12c-3,6.91-1.65,13.25,3.6,16.59
			c2.05,1.27,4.29,1.89,6.54,1.89c3.5,0,7.02-1.5,9.9-4.37c5.21-5.07,12.15-10.48,18.55-14.44c6.08-3.72,12.3-6.17,19.02-7.49
			c0.05-0.01,0.1-0.02,0.15-0.03c7.01-1.56,14.23-1.63,21.48-0.23l8.43,18.8c0.05,0.1,0.1,0.21,0.15,0.31
			c3.24,6.26,10.75,9,17.1,6.24c0.07-0.03,0.14-0.06,0.21-0.09c6.37-3.06,9.2-10.58,6.43-17.13
			C129.52,124,129.5,123.95,129.48,123.9z M85.7,90.23c-5.11,0.11-10.03,0.69-14.72,1.72c-3.59,0.71-7.53,1.83-11.5,3.25
			l14.46-30.81L85.7,90.23z"/>
		<path class="st0" d="M231.61,33.28c0-7.17-5.83-13-13-13c-7.05,0-13,5.95-13,13v58.38c0,2.4,0,9.69-3.35,15.93
			c-1.52,2.84-3.79,5.17-6.65,6.86c-4.12,2.36-9.57,3.55-16.2,3.55s-12.08-1.19-16.2-3.55c-2.91-1.67-5.08-3.91-6.81-7.05
			c-3.32-6.07-3.32-13.35-3.32-15.74V33.28c0-7.17-5.83-13-13-13c-7.05,0-13,5.95-13,13v58.38c0,4.01,0,16.22,6.49,28.25
			c4.05,7.28,9.67,13.01,16.62,16.96c8.04,4.73,17.87,7.13,29.22,7.13c27.1,0,39.84-13.14,45.72-24.12
			c6.48-11.84,6.48-24.17,6.48-28.22V33.28z"/>
		<path class="st0" d="M288.4,69.73c-23.88-5.86-29.03-8.56-29.03-15.17c0-10.15,13.3-10.94,17.38-10.94c4.16,0,8.18,0.11,11.6,1.43
			c3.97,1.5,7.48,3.78,9.86,6.41c0.21,0.23,0.45,0.45,0.69,0.65c0.14,0.11,0.26,0.24,0.39,0.36c0.52,0.5,1.23,1.18,2.23,1.78
			c0.06,0.03,0.11,0.07,0.17,0.1c4.93,2.74,11.15,1.43,14.83-3.11c2.93-3.51,3.8-8.25,2.28-12.41c-2.41-6.94-9.52-13.25-18.98-16.86
			c-6.62-2.62-14.82-4.06-23.07-4.06c-23.89,0-34.99,12.16-40.11,22.41c-3.79,7.77-4.4,21.96,1.2,31.29
			c3.9,6.65,10.67,11.92,20.12,15.68c7.16,3.01,14.52,4.75,20.79,6.06c8.5,1.77,18.53,4.64,20.76,11.22
			c0.59,1.7,0.47,3.86-0.34,5.92c-1.82,4.66-7.02,6.66-11.05,7.52c-4.7,0.99-10.61,1.07-16.12,0.23c-7.94-1.32-13.4-3.89-16.7-7.86
			l-0.18-0.24c-0.98-1.32-2.31-3.13-4.57-4.38c-0.08-0.04-0.15-0.08-0.23-0.12c-4.24-2.12-9.18-1.42-12.88,1.81
			c-4.06,3.55-5.68,9.19-4,14.09c2.23,6.32,7.31,11.71,14.68,15.59c5.27,2.99,12.12,5.25,19.89,6.55c3.93,0.6,7.95,0.91,11.97,0.91
			c13.12,0,39.18-6.27,43.96-30.02C326.51,101.66,325.32,78.7,288.4,69.73z"/>
		<path class="st1" d="M406.95,20.28h-75.46c-7.29,0-13,5.71-13,13c0,7.29,5.71,13,13,13h24.8v83.04c0,7.29,5.71,13,13,13
			c7.17,0,13-5.83,13-13V46.28h24.66c7.29,0,13-5.71,13-13C419.95,25.99,414.24,20.28,406.95,20.28z"/>
		<path class="st1" d="M501.87,116.32h-53.92v-22.3h45.8c7.29,0,13-5.71,13-13c0-7.17-5.83-13-13-13h-45.8V46.28h52.52
			c7.29,0,13-5.71,13-13c0-7.29-5.71-13-13-13h-65.52c-7.17,0-13,5.83-13,13v96.04c0,7.17,5.83,13,13,13h66.92c7.29,0,13-5.71,13-13
			S509.16,116.32,501.87,116.32z"/>
		<path class="st1" d="M629.34,124.04c-0.02-0.05-0.04-0.09-0.06-0.14l-43.5-95.96c-1.92-4.52-6.75-7.66-11.8-7.66
			c-5.01,0-9.53,2.83-11.81,7.38c-0.03,0.06-0.06,0.11-0.08,0.17l-44.24,96.04c-0.02,0.04-0.04,0.08-0.05,0.12
			c-3,6.91-1.64,13.25,3.6,16.59c2.05,1.27,4.29,1.89,6.54,1.89c3.5,0,7.02-1.5,9.9-4.37c5.21-5.07,12.15-10.48,18.55-14.44
			c6.08-3.72,12.3-6.17,19.02-7.49c0.05-0.01,0.1-0.02,0.15-0.03c7.01-1.56,14.23-1.63,21.48-0.23l8.42,18.8
			c0.05,0.1,0.1,0.21,0.15,0.31c3.24,6.25,10.76,9,17.1,6.24c0.07-0.03,0.14-0.06,0.21-0.09
			C629.28,138.11,632.1,130.59,629.34,124.04z M585.5,90.23c-5.11,0.11-10.03,0.68-14.72,1.72c-3.59,0.71-7.53,1.83-11.5,3.25
			l14.46-30.81L585.5,90.23z"/>
	</g>
</g>
</svg>
